<svg id="Layer_5" enable-background="new 0 0 64 64" height="512" viewBox="0 0 64 64" width="512" xmlns="http://www.w3.org/2000/svg"><path d="m55.6 7c-.557 0-1.11.139-1.6.399l-12.265 6.541c-.692.369-1.432.638-2.194.816 1.513-1.456 2.459-3.496 2.459-5.756 0-4.411-3.589-8-8-8s-8 3.589-8 8c0 2.39 1.059 4.533 2.726 6h-6.453c1.668-1.467 2.727-3.61 2.727-6 0-4.411-3.589-8-8-8s-8 3.589-8 8c0 2.39 1.059 4.533 2.726 6h-3.226c-1.93 0-3.5 1.57-3.5 3.5 0 1.137.557 2.17 1.435 2.816-.914 1.693-1.435 3.628-1.435 5.684v7c0 2.757 2.243 5 5 5v20c0 2.206 1.794 4 4 4 1.2 0 2.266-.542 3-1.382.734.84 1.8 1.382 3 1.382 2.206 0 4-1.794 4-4v-20c1.13 0 2.162-.391 3-1.026v21.026c0 2.206 1.794 4 4 4 1.2 0 2.266-.542 3-1.382.734.84 1.8 1.382 3 1.382 2.206 0 4-1.794 4-4v-34.646c0-1.089.591-2.094 1.543-2.622l14.708-8.172c1.079-.599 1.749-1.738 1.749-2.972v-.188c0-1.875-1.525-3.4-3.4-3.4zm-21.6 10h1.873c-.282 1.15-1.022 2-1.873 2s-1.59-.85-1.873-2zm-6-8c0-3.309 2.691-6 6-6s6 2.691 6 6-2.691 6-6 6-6-2.691-6-6zm-10.037 16.622-.963.964-.963-.964.752-8.611c.07-.002.14-.011.211-.011s.141.009.212.011zm-6.963-16.622c0-3.309 2.691-6 6-6s6 2.691 6 6-2.691 6-6 6-6-2.691-6-6zm-4 9.5c0-.827.673-1.5 1.5-1.5h1.881c-1.083.719-2.037 1.613-2.835 2.636-.33-.279-.546-.684-.546-1.136zm17 18.5v-14h-2v36c0 1.103-.897 2-2 2s-2-.897-2-2v-25h-2v25c0 1.103-.897 2-2 2s-2-.897-2-2v-36h-2v14c-1.654 0-3-1.346-3-3v-7c0-4.742 3.322-8.716 7.759-9.738l-.795 9.116 3.036 3.036 3.037-3.036-.795-9.116c4.436 1.022 7.758 4.996 7.758 9.738v5.958 1.042c0 1.654-1.346 3-3 3zm33-26.412c0 .508-.276.977-.72 1.224l-14.708 8.172c-1.586.88-2.572 2.555-2.572 4.37v34.646c0 1.103-.897 2-2 2s-2-.897-2-2v-24-1h-2v1 24c0 1.103-.897 2-2 2s-2-.897-2-2v-25-1.042-5.958c0-4.172-2.142-7.849-5.381-10h6.462c.372 2.279 1.987 4 3.919 4 1.939 0 3.557-1.734 3.921-4.026 1.656-.064 3.292-.487 4.756-1.268l12.265-6.542c.201-.107.429-.164.658-.164.772 0 1.4.628 1.4 1.4z"/></svg>